<svg width="18" height="19" viewBox="0 0 18 19" fill="none" xmlns="http://www.w3.org/2000/svg">
<path d="M1.23047 3.38235C1.23047 2.34276 2.07323 1.5 3.11282 1.5H5.93635C6.97595 1.5 7.8187 2.34276 7.8187 3.38235C7.8187 4.42195 6.97595 5.26471 5.93635 5.26471H3.11282C2.07323 5.26471 1.23047 4.42195 1.23047 3.38235Z" stroke="#4246FF" stroke-width="1.5"/>
<path d="M1.23047 3.38235C1.23047 2.34276 2.07323 1.5 3.11282 1.5H5.93635C6.97595 1.5 7.8187 2.34276 7.8187 3.38235C7.8187 4.42195 6.97595 5.26471 5.93635 5.26471H3.11282C2.07323 5.26471 1.23047 4.42195 1.23047 3.38235Z" stroke="#4246FF" stroke-width="1.5"/>
<path d="M1.23047 10.5882C1.23047 9.20752 2.34976 8.08824 3.73047 8.08824H5.31871C6.69942 8.08824 7.8187 9.20752 7.8187 10.5882V15C7.8187 16.3807 6.69942 17.5 5.3187 17.5H3.73047C2.34975 17.5 1.23047 16.3807 1.23047 15V10.5882Z" stroke="#4246FF" stroke-width="1.5"/>
<path d="M1.23047 10.5882C1.23047 9.20752 2.34976 8.08824 3.73047 8.08824H5.31871C6.69942 8.08824 7.8187 9.20752 7.8187 10.5882V15C7.8187 16.3807 6.69942 17.5 5.3187 17.5H3.73047C2.34975 17.5 1.23047 16.3807 1.23047 15V10.5882Z" stroke="#4246FF" stroke-width="1.5"/>
<path d="M10.6422 4C10.6422 2.61929 11.7615 1.5 13.1422 1.5H14.7305C16.1112 1.5 17.2305 2.61929 17.2305 4V8.41177C17.2305 9.79248 16.1112 10.9118 14.7305 10.9118H13.1422C11.7615 10.9118 10.6422 9.79248 10.6422 8.41177V4Z" stroke="#4246FF" stroke-width="1.5"/>
<path d="M10.6422 4C10.6422 2.61929 11.7615 1.5 13.1422 1.5H14.7305C16.1112 1.5 17.2305 2.61929 17.2305 4V8.41177C17.2305 9.79248 16.1112 10.9118 14.7305 10.9118H13.1422C11.7615 10.9118 10.6422 9.79248 10.6422 8.41177V4Z" stroke="#4246FF" stroke-width="1.5"/>
<path d="M10.6422 15.6176C10.6422 14.5781 11.485 13.7353 12.5246 13.7353H15.3481C16.3877 13.7353 17.2305 14.5781 17.2305 15.6176C17.2305 16.6572 16.3877 17.5 15.3481 17.5H12.5246C11.485 17.5 10.6422 16.6572 10.6422 15.6176Z" stroke="#4246FF" stroke-width="1.5"/>
<path d="M10.6422 15.6176C10.6422 14.5781 11.485 13.7353 12.5246 13.7353H15.3481C16.3877 13.7353 17.2305 14.5781 17.2305 15.6176C17.2305 16.6572 16.3877 17.5 15.3481 17.5H12.5246C11.485 17.5 10.6422 16.6572 10.6422 15.6176Z" stroke="#4246FF" stroke-width="1.5"/>
</svg>
